<svg width="231" height="62" viewBox="0 0 231 62" fill="none" xmlns="http://www.w3.org/2000/svg">
<path d="M181.958 29.8732C178.105 29.8732 175.596 26.5657 175.596 21.9124C175.596 21.5123 175.596 21.1122 175.632 20.7485H187.411V20.4587C187.411 16.2771 184.467 13.4424 180.141 13.4424C176.045 13.4424 172.842 16.0952 171.693 20.1677H169.461L170.782 20.7461H171.547C171.34 21.6461 171.232 22.607 171.232 23.6207C171.232 29.2185 174.867 32.9261 180.029 32.9261C184.174 32.9261 187.192 29.8732 187.956 24.7835C186.937 28.1273 184.901 29.872 181.957 29.872L181.958 29.8732ZM180.141 14.0232C181.995 14.0232 183.339 16.2055 183.339 18.6765C183.339 19.5858 183.011 20.1665 182.104 20.1665H175.705C176.105 16.4589 177.85 14.0232 180.142 14.0232H180.141Z" fill="white"/>
<path d="M230.803 18.2554C231.03 18.388 227.53 27.2757 227.205 28.1732C225.953 31.6262 224.698 35.0781 223.421 38.5229C220.922 45.2646 218.731 52.3795 214.943 58.517C214.058 59.9508 212.742 61.5875 210.992 61.9383C209.653 62.207 208.404 61.5629 207.42 60.7017C204.95 58.5381 203.472 55.2001 202.269 52.2152C201.787 51.0173 201.322 49.7971 200.965 48.5545C200.584 47.2158 200.63 46.0155 200.63 46.0155C205.398 62.9509 212.805 55.8607 214.808 53.5129C214.813 53.5082 214.819 53.5 214.823 53.4953C214.983 53.2994 215.141 53.0987 215.301 52.8934C215.311 52.8828 215.316 52.8758 215.321 52.8676C215.469 52.674 215.618 52.4792 215.768 52.2786C215.875 52.1261 216.088 51.8269 216.403 51.3787C216.718 50.934 216.965 50.5914 217.137 50.352H214.658L201.465 18.2565H204.893L217.628 49.2421L228.927 18.2565H230.802L230.803 18.2554Z" fill="white"/>
<path d="M194.505 43.9293H190.54L189.604 1.30588L192.411 0L194.505 43.9293Z" fill="white"/>
<path d="M200.334 43.9293H196.369L195.433 1.30588L198.239 0L200.334 43.9293Z" fill="white"/>
<path d="M173.106 43.8115C170.701 45.8718 167.34 42.6886 165.513 41.2173C162.829 39.0549 160.248 36.7647 157.78 34.3571C149.351 26.1311 142.898 16.3951 136.006 6.91487L134.498 4.84166C134.345 4.62929 134.313 4.3524 134.415 4.10952C134.696 3.44192 135.335 2.25337 136.092 3.00897C137.114 4.03091 156.018 34.6833 162.021 32.8951C164.243 32.2334 165.264 30.5497 164.971 28.29C164.839 27.2715 164.428 26.3716 164.09 25.4236V25.4213L163.133 23.6249C162.923 23.341 162.799 22.989 162.799 22.6089C162.799 21.6632 163.566 20.897 164.512 20.897C165.121 20.897 165.656 21.215 165.96 21.6937C165.963 21.6984 165.966 21.7019 165.969 21.7066C166.293 22.1701 166.516 22.7673 166.741 23.2084C167.609 24.912 168.392 26.6603 169.168 28.4073C170.345 31.0578 171.325 33.8244 172.558 36.4444C173.13 38.1046 174.86 42.3085 173.106 43.8115Z" fill="white"/>
<path d="M151.552 10.2822C151.552 10.2822 151.776 15.9903 153.791 16.3258C154.902 16.5112 157.275 16.2871 159.178 16.0501C160.352 15.9034 160.838 14.4626 159.992 13.6343C158.194 11.8767 155.585 9.55475 154.016 9.19455C151.441 8.6032 151.554 10.2822 151.554 10.2822H151.552Z" fill="white"/>
<path d="M135.483 15.4894C135.315 15.141 135.145 14.7925 134.999 14.4252C134.755 13.8069 134.839 13.1898 135.553 12.9973C137.16 12.5644 141.79 20.9722 141.876 22.1643C141.961 23.3564 136.393 39.5854 135.373 39.5549C134.108 39.5173 129.071 30.5299 129.752 28.8263C130.214 27.6718 131.125 26.6263 131.853 25.6349C132.863 24.2633 133.902 22.9129 134.87 21.512C135.814 20.1462 136.508 18.8732 136.118 17.1461C135.983 16.5501 135.737 16.0198 135.483 15.4894Z" fill="white"/>
<path d="M163.383 9.68866C162.79 9.94326 162.304 10.246 162.049 10.6038C161.368 11.5612 162.783 12.2629 163.368 12.8202C164.307 13.7142 165.252 14.6059 166.195 15.4976C166.345 15.6396 166.507 15.7863 166.799 15.8344C167.237 15.9048 167.841 15.7347 168.381 15.5598C171.159 14.6587 174.564 13.2965 176.344 11.6093C177.944 10.0923 176.595 9.16772 174.836 8.78757C172.731 8.33233 170.219 8.17863 167.448 8.64325C166.425 8.81455 164.658 9.1419 163.383 9.68983V9.68866Z" fill="white"/>
<mask id="path-9-outside-1_328_9696" maskUnits="userSpaceOnUse" x="-0.312988" y="5.79346" width="125" height="42" fill="black">
<rect fill="white" x="-0.312988" y="5.79346" width="125" height="42"/>
<path d="M23.808 14.976C23.808 19.3454 19.4781 22.9204 14.1942 22.9204H6.5271V34.678L11.2548 36.2666H0.687012L4.6203 34.678V8.97813L0.687012 7.26981H14.1942C19.4781 7.26981 23.808 10.7252 23.808 14.976ZM21.7017 14.976C21.7017 10.8448 18.4842 7.98552 13.8762 7.98552H6.52593V22.2059H13.8762C18.483 22.2059 21.7017 19.2269 21.7017 14.9772V14.976Z"/>
<path d="M40.2557 17.7966C40.2557 18.4724 39.8192 18.9887 39.1035 18.9887C37.713 18.9887 37.395 17.5584 35.9258 17.5584C34.2573 17.5584 32.7083 19.3853 31.6746 20.5773V34.9561L35.6079 36.2666H26.6301L29.9672 34.9561V18.7493H26.6301L31.6746 16.0484V19.7818C33.0252 18.2331 35.25 16.0484 37.7928 16.0484C39.263 16.0484 40.2557 16.7242 40.2557 17.7954V17.7966Z"/>
<path d="M41.9654 26.2174C41.9654 20.616 46.415 16.0484 51.4994 16.0484C56.5838 16.0484 60.9935 20.616 60.9935 26.2174C60.9935 31.8187 56.5439 36.743 51.4994 36.743C46.4549 36.743 41.9654 32.0158 41.9654 26.2174ZM58.967 26.2174C58.967 20.6559 55.868 16.6444 51.4994 16.6444C47.1308 16.6444 43.9919 20.4975 43.9919 26.2174C43.9919 31.9372 47.0909 36.1071 51.4994 36.1071C55.9079 36.1071 58.967 32.1355 58.967 26.2174Z"/>
<path d="M62.8229 18.7493L67.8674 16.0484V38.3316C67.8674 43.0588 65.2847 45.9979 60.4784 46.7524C64.1723 45.7199 66.1589 42.9791 66.1589 37.4176V18.7493H62.8217H62.8229ZM68.3849 6.79346V10.4072H65.2072V6.79346H68.3849Z"/>
<path d="M89.0827 29.6328C87.9703 34.2404 85.309 36.743 81.6151 36.743C76.2913 36.743 72.5974 32.8113 72.5974 26.574C72.5974 20.3368 76.411 16.0484 81.4954 16.0484C85.7854 16.0484 88.6849 19.0673 88.6849 23.595V23.8332H74.6227C74.5031 24.5478 74.4233 25.3421 74.4233 26.1376C74.4233 31.6192 77.3627 35.3925 81.9707 35.3925C85.3079 35.3925 87.8506 33.4061 89.0816 29.6328H89.0827ZM74.7014 23.2372H85.3876C86.1809 23.2372 86.6186 22.8394 86.6186 22.0064C86.6186 19.424 84.4337 16.6046 81.4943 16.6046C78.1571 16.6046 75.5744 19.2656 74.7002 23.2384L74.7014 23.2372Z"/>
<path d="M105.135 16.9917C106.087 17.5315 106.65 18.0019 107.176 18.8127C106.818 18.1322 106.103 17.4869 105.135 16.9917Z"/>
<path d="M124.202 32.8911C122.612 35.3937 120.666 36.7442 118.402 36.7442C115.661 36.7442 113.714 35.1156 113.794 32.0967L114.152 18.0747H110.02L113.794 15.3738V12.6728L115.581 11.4808V16.8028H122.771V18.0735H115.581V31.8175C115.581 34.2404 117.131 35.4711 119.078 35.4711C121.144 35.4711 122.891 34.5571 124.202 32.8899V32.8911Z"/>
<path d="M108.43 29.6317C107.316 34.2427 104.657 36.743 100.96 36.743C95.6374 36.743 91.9435 32.8089 91.9435 26.5729C91.9435 20.3368 95.7571 16.0496 101.001 16.0496C102.585 16.0496 104 16.4168 105.103 16.9741C105.114 16.9812 105.124 16.9847 105.134 16.9917C106.086 17.5315 106.649 18.0019 107.174 18.8127C107.281 18.9805 107.388 19.1635 107.497 19.363C107.82 19.9614 108.06 20.6207 108.078 21.3013C108.101 22.3185 107.586 23.3322 106.752 23.9154C105.917 24.4961 104.783 24.6264 103.838 24.2521C103.488 24.1148 103.151 23.9013 102.938 23.5857C102.554 23.0119 102.657 22.2352 102.901 21.5864C103.145 20.9375 103.512 20.3251 103.626 19.6422C103.761 18.8174 103.448 17.9773 102.902 17.3602C102.379 16.7676 101.643 16.5752 100.877 16.6046C100.567 16.6163 100.26 16.6386 99.9533 16.689C99.3806 16.7817 98.8221 16.9554 98.2976 17.2041C97.773 17.4528 97.2896 17.7732 96.8519 18.151C96.3966 18.544 95.9941 18.9957 95.6468 19.4862C95.276 20.0095 94.9662 20.5762 94.714 21.1663C94.4405 21.8046 94.234 22.471 94.085 23.148C93.9231 23.8848 93.828 24.6346 93.7905 25.3878C93.7776 25.6378 93.7717 25.8888 93.7717 26.1399C93.7717 31.6239 96.7099 35.396 101.317 35.396C104.656 35.396 107.196 33.4097 108.429 29.634L108.43 29.6317Z"/>
</mask>
<path d="M23.808 14.976C23.808 19.3454 19.4781 22.9204 14.1942 22.9204H6.5271V34.678L11.2548 36.2666H0.687012L4.6203 34.678V8.97813L0.687012 7.26981H14.1942C19.4781 7.26981 23.808 10.7252 23.808 14.976ZM21.7017 14.976C21.7017 10.8448 18.4842 7.98552 13.8762 7.98552H6.52593V22.2059H13.8762C18.483 22.2059 21.7017 19.2269 21.7017 14.9772V14.976Z" fill="white"/>
<path d="M40.2557 17.7966C40.2557 18.4724 39.8192 18.9887 39.1035 18.9887C37.713 18.9887 37.395 17.5584 35.9258 17.5584C34.2573 17.5584 32.7083 19.3853 31.6746 20.5773V34.9561L35.6079 36.2666H26.6301L29.9672 34.9561V18.7493H26.6301L31.6746 16.0484V19.7818C33.0252 18.2331 35.25 16.0484 37.7928 16.0484C39.263 16.0484 40.2557 16.7242 40.2557 17.7954V17.7966Z" fill="white"/>
<path d="M41.9654 26.2174C41.9654 20.616 46.415 16.0484 51.4994 16.0484C56.5838 16.0484 60.9935 20.616 60.9935 26.2174C60.9935 31.8187 56.5439 36.743 51.4994 36.743C46.4549 36.743 41.9654 32.0158 41.9654 26.2174ZM58.967 26.2174C58.967 20.6559 55.868 16.6444 51.4994 16.6444C47.1308 16.6444 43.9919 20.4975 43.9919 26.2174C43.9919 31.9372 47.0909 36.1071 51.4994 36.1071C55.9079 36.1071 58.967 32.1355 58.967 26.2174Z" fill="white"/>
<path d="M62.8229 18.7493L67.8674 16.0484V38.3316C67.8674 43.0588 65.2847 45.9979 60.4784 46.7524C64.1723 45.7199 66.1589 42.9791 66.1589 37.4176V18.7493H62.8217H62.8229ZM68.3849 6.79346V10.4072H65.2072V6.79346H68.3849Z" fill="white"/>
<path d="M89.0827 29.6328C87.9703 34.2404 85.309 36.743 81.6151 36.743C76.2913 36.743 72.5974 32.8113 72.5974 26.574C72.5974 20.3368 76.411 16.0484 81.4954 16.0484C85.7854 16.0484 88.6849 19.0673 88.6849 23.595V23.8332H74.6227C74.5031 24.5478 74.4233 25.3421 74.4233 26.1376C74.4233 31.6192 77.3627 35.3925 81.9707 35.3925C85.3079 35.3925 87.8506 33.4061 89.0816 29.6328H89.0827ZM74.7014 23.2372H85.3876C86.1809 23.2372 86.6186 22.8394 86.6186 22.0064C86.6186 19.424 84.4337 16.6046 81.4943 16.6046C78.1571 16.6046 75.5744 19.2656 74.7002 23.2384L74.7014 23.2372Z" fill="white"/>
<path d="M105.135 16.9917C106.087 17.5315 106.65 18.0019 107.176 18.8127C106.818 18.1322 106.103 17.4869 105.135 16.9917Z" fill="white"/>
<path d="M124.202 32.8911C122.612 35.3937 120.666 36.7442 118.402 36.7442C115.661 36.7442 113.714 35.1156 113.794 32.0967L114.152 18.0747H110.02L113.794 15.3738V12.6728L115.581 11.4808V16.8028H122.771V18.0735H115.581V31.8175C115.581 34.2404 117.131 35.4711 119.078 35.4711C121.144 35.4711 122.891 34.5571 124.202 32.8899V32.8911Z" fill="white"/>
<path d="M108.43 29.6317C107.316 34.2427 104.657 36.743 100.96 36.743C95.6374 36.743 91.9435 32.8089 91.9435 26.5729C91.9435 20.3368 95.7571 16.0496 101.001 16.0496C102.585 16.0496 104 16.4168 105.103 16.9741C105.114 16.9812 105.124 16.9847 105.134 16.9917C106.086 17.5315 106.649 18.0019 107.174 18.8127C107.281 18.9805 107.388 19.1635 107.497 19.363C107.82 19.9614 108.06 20.6207 108.078 21.3013C108.101 22.3185 107.586 23.3322 106.752 23.9154C105.917 24.4961 104.783 24.6264 103.838 24.2521C103.488 24.1148 103.151 23.9013 102.938 23.5857C102.554 23.0119 102.657 22.2352 102.901 21.5864C103.145 20.9375 103.512 20.3251 103.626 19.6422C103.761 18.8174 103.448 17.9773 102.902 17.3602C102.379 16.7676 101.643 16.5752 100.877 16.6046C100.567 16.6163 100.26 16.6386 99.9533 16.689C99.3806 16.7817 98.8221 16.9554 98.2976 17.2041C97.773 17.4528 97.2896 17.7732 96.8519 18.151C96.3966 18.544 95.9941 18.9957 95.6468 19.4862C95.276 20.0095 94.9662 20.5762 94.714 21.1663C94.4405 21.8046 94.234 22.471 94.085 23.148C93.9231 23.8848 93.828 24.6346 93.7905 25.3878C93.7776 25.6378 93.7717 25.8888 93.7717 26.1399C93.7717 31.6239 96.7099 35.396 101.317 35.396C104.656 35.396 107.196 33.4097 108.429 29.634L108.43 29.6317Z" fill="white"/>
<path d="M23.808 14.976C23.808 19.3454 19.4781 22.9204 14.1942 22.9204H6.5271V34.678L11.2548 36.2666H0.687012L4.6203 34.678V8.97813L0.687012 7.26981H14.1942C19.4781 7.26981 23.808 10.7252 23.808 14.976ZM21.7017 14.976C21.7017 10.8448 18.4842 7.98552 13.8762 7.98552H6.52593V22.2059H13.8762C18.483 22.2059 21.7017 19.2269 21.7017 14.9772V14.976Z" stroke="white" stroke-width="0.729403" mask="url(#path-9-outside-1_328_9696)"/>
<path d="M40.2557 17.7966C40.2557 18.4724 39.8192 18.9887 39.1035 18.9887C37.713 18.9887 37.395 17.5584 35.9258 17.5584C34.2573 17.5584 32.7083 19.3853 31.6746 20.5773V34.9561L35.6079 36.2666H26.6301L29.9672 34.9561V18.7493H26.6301L31.6746 16.0484V19.7818C33.0252 18.2331 35.25 16.0484 37.7928 16.0484C39.263 16.0484 40.2557 16.7242 40.2557 17.7954V17.7966Z" stroke="white" stroke-width="0.729403" mask="url(#path-9-outside-1_328_9696)"/>
<path d="M41.9654 26.2174C41.9654 20.616 46.415 16.0484 51.4994 16.0484C56.5838 16.0484 60.9935 20.616 60.9935 26.2174C60.9935 31.8187 56.5439 36.743 51.4994 36.743C46.4549 36.743 41.9654 32.0158 41.9654 26.2174ZM58.967 26.2174C58.967 20.6559 55.868 16.6444 51.4994 16.6444C47.1308 16.6444 43.9919 20.4975 43.9919 26.2174C43.9919 31.9372 47.0909 36.1071 51.4994 36.1071C55.9079 36.1071 58.967 32.1355 58.967 26.2174Z" stroke="white" stroke-width="0.729403" mask="url(#path-9-outside-1_328_9696)"/>
<path d="M62.8229 18.7493L67.8674 16.0484V38.3316C67.8674 43.0588 65.2847 45.9979 60.4784 46.7524C64.1723 45.7199 66.1589 42.9791 66.1589 37.4176V18.7493H62.8217H62.8229ZM68.3849 6.79346V10.4072H65.2072V6.79346H68.3849Z" stroke="white" stroke-width="0.729403" mask="url(#path-9-outside-1_328_9696)"/>
<path d="M89.0827 29.6328C87.9703 34.2404 85.309 36.743 81.6151 36.743C76.2913 36.743 72.5974 32.8113 72.5974 26.574C72.5974 20.3368 76.411 16.0484 81.4954 16.0484C85.7854 16.0484 88.6849 19.0673 88.6849 23.595V23.8332H74.6227C74.5031 24.5478 74.4233 25.3421 74.4233 26.1376C74.4233 31.6192 77.3627 35.3925 81.9707 35.3925C85.3079 35.3925 87.8506 33.4061 89.0816 29.6328H89.0827ZM74.7014 23.2372H85.3876C86.1809 23.2372 86.6186 22.8394 86.6186 22.0064C86.6186 19.424 84.4337 16.6046 81.4943 16.6046C78.1571 16.6046 75.5744 19.2656 74.7002 23.2384L74.7014 23.2372Z" stroke="white" stroke-width="0.729403" mask="url(#path-9-outside-1_328_9696)"/>
<path d="M105.135 16.9917C106.087 17.5315 106.65 18.0019 107.176 18.8127C106.818 18.1322 106.103 17.4869 105.135 16.9917Z" stroke="white" stroke-width="0.729403" mask="url(#path-9-outside-1_328_9696)"/>
<path d="M124.202 32.8911C122.612 35.3937 120.666 36.7442 118.402 36.7442C115.661 36.7442 113.714 35.1156 113.794 32.0967L114.152 18.0747H110.02L113.794 15.3738V12.6728L115.581 11.4808V16.8028H122.771V18.0735H115.581V31.8175C115.581 34.2404 117.131 35.4711 119.078 35.4711C121.144 35.4711 122.891 34.5571 124.202 32.8899V32.8911Z" stroke="white" stroke-width="0.729403" mask="url(#path-9-outside-1_328_9696)"/>
<path d="M108.43 29.6317C107.316 34.2427 104.657 36.743 100.96 36.743C95.6374 36.743 91.9435 32.8089 91.9435 26.5729C91.9435 20.3368 95.7571 16.0496 101.001 16.0496C102.585 16.0496 104 16.4168 105.103 16.9741C105.114 16.9812 105.124 16.9847 105.134 16.9917C106.086 17.5315 106.649 18.0019 107.174 18.8127C107.281 18.9805 107.388 19.1635 107.497 19.363C107.82 19.9614 108.06 20.6207 108.078 21.3013C108.101 22.3185 107.586 23.3322 106.752 23.9154C105.917 24.4961 104.783 24.6264 103.838 24.2521C103.488 24.1148 103.151 23.9013 102.938 23.5857C102.554 23.0119 102.657 22.2352 102.901 21.5864C103.145 20.9375 103.512 20.3251 103.626 19.6422C103.761 18.8174 103.448 17.9773 102.902 17.3602C102.379 16.7676 101.643 16.5752 100.877 16.6046C100.567 16.6163 100.26 16.6386 99.9533 16.689C99.3806 16.7817 98.8221 16.9554 98.2976 17.2041C97.773 17.4528 97.2896 17.7732 96.8519 18.151C96.3966 18.544 95.9941 18.9957 95.6468 19.4862C95.276 20.0095 94.9662 20.5762 94.714 21.1663C94.4405 21.8046 94.234 22.471 94.085 23.148C93.9231 23.8848 93.828 24.6346 93.7905 25.3878C93.7776 25.6378 93.7717 25.8888 93.7717 26.1399C93.7717 31.6239 96.7099 35.396 101.317 35.396C104.656 35.396 107.196 33.4097 108.429 29.634L108.43 29.6317Z" stroke="white" stroke-width="0.729403" mask="url(#path-9-outside-1_328_9696)"/>
</svg>
