<svg width="680" height="481" viewBox="0 0 680 481" fill="none" xmlns="http://www.w3.org/2000/svg">
<path d="M291.946 358.323C275.81 372.152 253.266 350.786 241.011 340.91C223.009 326.396 205.692 311.023 189.139 294.863C132.6 239.649 89.308 174.3 43.0801 110.667L32.9656 96.7514C31.9344 95.326 31.7219 93.4674 32.4067 91.8372C34.2879 87.3562 38.5778 79.3785 43.6547 84.4502C50.5106 91.3096 177.317 297.052 217.586 285.05C232.494 280.609 239.342 269.308 237.374 254.14C236.493 247.304 233.73 241.264 231.463 234.9V234.885L225.048 222.828C223.639 220.922 222.805 218.559 222.805 216.008C222.805 209.66 227.952 204.517 234.297 204.517C238.382 204.517 241.971 206.652 244.01 209.865C244.033 209.896 244.049 209.92 244.073 209.951C246.245 213.062 247.741 217.071 249.252 220.032C255.069 231.467 260.327 243.201 265.53 254.927C273.425 272.718 279.997 291.288 288.27 308.873C292.103 320.017 303.713 348.234 291.946 358.323Z" fill="#FF280B"/>
<path d="M147.359 133.269C147.359 133.269 148.862 171.583 162.377 173.835C169.831 175.079 185.747 173.575 198.514 171.984C206.393 171 209.652 161.329 203.977 155.769C191.918 143.972 174.412 128.387 163.889 125.969C146.619 122 147.375 133.269 147.375 133.269H147.359Z" fill="#FF280B"/>
<path d="M39.57 168.22C38.4444 165.881 37.303 163.542 36.327 161.077C34.6898 156.926 35.2486 152.784 40.0422 151.492C50.818 148.586 81.878 205.021 82.4526 213.022C83.0272 221.024 45.6781 329.955 38.8301 329.75C30.3448 329.498 -3.43859 269.173 1.12674 257.738C4.22801 249.989 10.3361 242.972 15.2242 236.318C21.9934 227.111 28.9674 218.047 35.4612 208.644C41.7897 199.477 46.4494 190.932 43.8283 179.34C42.9231 175.339 41.278 171.779 39.57 168.22Z" fill="#FF280B"/>
<path d="M226.725 129.277C222.742 130.986 219.483 133.018 217.775 135.419C213.202 141.846 222.694 146.555 226.622 150.296C232.919 156.297 239.256 162.282 245.584 168.267C246.592 169.22 247.678 170.205 249.638 170.528C252.574 171 256.627 169.858 260.248 168.685C278.88 162.637 301.722 153.493 313.663 142.169C324.399 131.986 315.347 125.78 303.548 123.228C289.427 120.173 272.575 119.141 253.991 122.26C247.127 123.41 235.273 125.607 226.725 129.285V129.277Z" fill="#FF280B"/>
<path d="M351.326 264.763C325.477 264.763 308.648 242.563 308.648 211.329C308.648 208.644 308.648 205.958 308.892 203.517H387.904V201.571C387.904 173.504 368.155 154.477 339.133 154.477C311.663 154.477 290.174 172.283 282.468 199.618H267.497L276.352 203.501H281.484C280.099 209.541 279.375 215.991 279.375 222.796C279.375 260.369 303.76 285.255 338.386 285.255C366.187 285.255 386.432 264.763 391.556 230.6C384.724 253.045 371.067 264.755 351.318 264.755L351.326 264.763ZM339.133 158.375C351.57 158.375 360.59 173.023 360.59 189.609C360.59 195.712 358.386 199.611 352.302 199.611H309.38C312.064 174.725 323.769 158.375 339.141 158.375H339.133Z" fill="#FF280B"/>
<path d="M678.976 186.782C680.503 187.672 657.023 247.327 654.843 253.352C646.444 276.529 638.022 299.698 629.458 322.82C612.692 368.072 597.996 415.828 572.588 457.024C566.653 466.647 557.822 477.634 546.086 479.988C537.104 481.792 528.722 477.468 522.125 471.688C505.556 457.166 495.639 434.76 487.571 414.725C484.336 406.685 481.219 398.494 478.826 390.154C476.267 381.169 476.574 373.112 476.574 373.112C508.563 486.785 558.247 439.194 571.683 423.436C571.714 423.404 571.754 423.349 571.785 423.317C572.856 422.002 573.918 420.656 574.989 419.277C575.06 419.207 575.091 419.159 575.123 419.104C576.114 417.805 577.114 416.497 578.122 415.151C578.838 414.127 580.27 412.119 582.38 409.11C584.497 406.126 586.15 403.826 587.307 402.219H570.675L482.179 186.79H505.171L590.598 394.769L666.39 186.79H678.968L678.976 186.782Z" fill="#FF280B"/>
<path d="M130.097 20.4783C130.097 31.2832 119.392 40.1272 106.325 40.1272H87.3714V69.2108L99.0603 73.1406H72.9355L82.6566 69.2108V5.64116L72.9355 1.41211H106.325C119.392 1.41211 130.097 9.96472 130.097 20.4783ZM124.894 20.4783C124.894 10.2561 116.936 3.18406 105.546 3.18406H87.3793V38.3631H105.546C116.936 38.3631 124.894 30.9918 124.894 20.4783Z" fill="white"/>
<path d="M170.759 27.4561C170.759 29.1257 169.681 30.4015 167.91 30.4015C164.47 30.4015 163.683 26.8655 160.054 26.8655C155.93 26.8655 152.097 31.3859 149.546 34.3313V69.9041L159.267 73.1488H137.07L145.319 69.9041V29.8108H137.07L149.546 23.1326V32.3703C152.884 28.535 158.386 23.1326 164.675 23.1326C168.311 23.1326 170.767 24.8021 170.767 27.4561H170.759Z" fill="white"/>
<path d="M174.986 48.2864C174.986 34.4337 185.982 23.1326 198.561 23.1326C211.139 23.1326 222.033 34.4337 222.033 48.2864C222.033 62.1391 211.037 74.3222 198.561 74.3222C186.085 74.3222 174.986 62.6273 174.986 48.2864ZM217.019 48.2864C217.019 34.5282 209.36 24.6053 198.553 24.6053C187.746 24.6053 179.992 34.1344 179.992 48.2864C179.992 62.4383 187.651 72.755 198.553 72.755C209.455 72.755 217.019 62.9266 217.019 48.2864Z" fill="white"/>
<path d="M226.559 29.819L239.035 23.1407V78.268C239.035 89.9629 232.651 97.2318 220.766 99.0982C229.896 96.5466 234.808 89.766 234.808 76.0078V29.8269H226.559V29.819ZM240.31 0.239258V9.17775H232.454V0.239258H240.31Z" fill="white"/>
<path d="M291.481 56.7366C288.734 68.1322 282.154 74.3222 273.015 74.3222C259.854 74.3222 250.724 64.5962 250.724 49.1684C250.724 33.7406 260.153 23.1326 272.724 23.1326C283.326 23.1326 290.497 30.5984 290.497 41.805V42.3956H255.73C255.439 44.1676 255.242 46.1285 255.242 48.0974C255.242 61.6587 262.507 70.9909 273.904 70.9909C282.154 70.9909 288.443 66.0767 291.489 56.7445L291.481 56.7366ZM255.927 40.9151H282.35C284.31 40.9151 285.397 39.9306 285.397 37.8673C285.397 31.4804 279.997 24.5029 272.724 24.5029C264.475 24.5029 258.091 31.0867 255.927 40.9151Z" fill="white"/>
<path d="M331.168 25.4634C333.521 26.7943 334.915 27.9599 336.213 29.9681C335.332 28.2827 333.561 26.6841 331.168 25.4634Z" fill="white"/>
<path d="M378.301 64.8008C374.373 70.9908 369.556 74.3299 363.959 74.3299C357.182 74.3299 352.373 70.3056 352.57 62.8319L353.451 28.1411H343.234L352.562 21.4628V14.7767L356.978 11.8313V24.9988H374.751V28.1411H356.978V62.1389C356.978 68.132 360.811 71.1798 365.62 71.1798C370.729 71.1798 375.05 68.9196 378.293 64.7929L378.301 64.8008Z" fill="white"/>
<path d="M339.315 56.7366C336.56 68.1401 329.987 74.3301 320.849 74.3301C307.688 74.3301 298.557 64.5962 298.557 49.1684C298.557 33.7406 307.987 23.1326 320.951 23.1326C324.871 23.1326 328.366 24.0382 331.097 25.4164C331.121 25.4322 331.144 25.44 331.176 25.4558C333.529 26.7867 334.922 27.9523 336.221 29.9605C336.481 30.3779 336.748 30.8268 337.016 31.3229C337.811 32.8035 338.409 34.4337 338.449 36.119C338.512 38.6312 337.237 41.1434 335.166 42.5846C333.104 44.0179 330.302 44.3408 327.964 43.4194C327.098 43.0808 326.264 42.5531 325.737 41.7735C324.784 40.3559 325.044 38.4343 325.642 36.8278C326.248 35.2212 327.153 33.7091 327.437 32.0159C327.767 29.9762 326.996 27.8971 325.65 26.3693C324.359 24.9045 322.541 24.432 320.644 24.5029C319.88 24.5344 319.117 24.5895 318.361 24.7076C316.944 24.936 315.567 25.3692 314.268 25.9834C312.969 26.5977 311.773 27.3931 310.695 28.3224C309.616 29.2517 308.577 30.4094 307.711 31.6222C306.79 32.9216 306.027 34.3234 305.405 35.7803C304.728 37.3633 304.217 39.0092 303.847 40.6867C303.445 42.5059 303.209 44.3645 303.115 46.2309C303.083 46.8531 303.067 47.4673 303.067 48.0895C303.067 61.6508 310.333 70.9831 321.722 70.9831C329.979 70.9831 336.26 66.0689 339.307 56.7287L339.315 56.7366Z" fill="white"/>
<path d="M435.494 359.11H408.897L402.616 73.015L421.444 64.2498L435.494 359.11Z" fill="#FF280B"/>
<path d="M474.59 359.11H447.993L441.712 73.015L460.54 64.2498L474.59 359.11Z" fill="#FF280B"/>
</svg>
