<svg width="679" height="481" viewBox="0 0 679 481" fill="none" xmlns="http://www.w3.org/2000/svg">
<path d="M291.523 358.323C275.372 372.152 252.806 350.786 240.539 340.91C222.52 326.396 205.186 311.023 188.617 294.863C132.023 239.649 88.6892 174.3 42.4165 110.667L32.2922 96.7514C31.26 95.326 31.0473 93.4674 31.7328 91.8372C33.6158 87.3562 37.9098 79.3785 42.9917 84.4502C49.8542 91.3096 176.783 297.052 217.091 285.05C232.014 280.609 238.869 269.308 236.899 254.14C236.016 247.304 233.251 241.264 230.982 234.9V234.885L224.561 222.828C223.15 220.922 222.315 218.559 222.315 216.008C222.315 209.66 227.468 204.517 233.818 204.517C237.907 204.517 241.5 206.652 243.541 209.865C243.564 209.896 243.58 209.92 243.604 209.951C245.778 213.062 247.275 217.071 248.788 220.032C254.611 231.467 259.874 243.201 265.082 254.927C272.984 272.718 279.563 291.288 287.844 308.873C291.681 320.017 303.302 348.234 291.523 358.323Z" fill="#FF280B"/>
<path d="M146.796 133.269C146.796 133.269 148.301 171.583 161.829 173.835C169.291 175.079 185.222 173.575 198.001 171.984C205.888 171 209.15 161.329 203.469 155.769C191.399 143.972 173.876 128.387 163.342 125.969C146.056 122 146.812 133.269 146.812 133.269H146.796Z" fill="#FF280B"/>
<path d="M38.903 168.22C37.7764 165.881 36.6339 163.542 35.6569 161.077C34.0181 156.926 34.5775 152.784 39.3758 151.492C50.162 148.586 81.252 205.021 81.8272 213.022C82.4024 221.024 45.017 329.955 38.1624 329.75C29.669 329.498 -4.1472 269.173 0.422557 257.738C3.52684 249.989 9.64085 242.972 14.5336 236.318C21.3095 227.111 28.2902 218.047 34.7903 208.644C41.1249 199.477 45.7892 190.932 43.1655 179.34C42.2594 175.339 40.6128 171.779 38.903 168.22Z" fill="#FF280B"/>
<path d="M226.239 129.277C222.253 130.986 218.991 133.018 217.281 135.419C212.703 141.846 222.205 146.555 226.137 150.296C232.44 156.297 238.782 162.282 245.117 168.267C246.126 169.22 247.213 170.205 249.175 170.528C252.114 171 256.171 169.858 259.795 168.685C278.445 162.637 301.309 153.493 313.262 142.169C324.008 131.986 314.948 125.78 303.137 123.228C289.003 120.173 272.134 119.141 253.532 122.26C246.661 123.41 234.796 125.607 226.239 129.285V129.277Z" fill="#FF280B"/>
<path d="M350.961 264.763C325.087 264.763 308.242 242.563 308.242 211.329C308.242 208.644 308.242 205.958 308.486 203.517H387.575V201.572C387.575 173.504 367.806 154.477 338.757 154.477C311.26 154.477 289.75 172.283 282.037 199.619H267.051L275.915 203.501H281.052C279.665 209.542 278.941 215.991 278.941 222.796C278.941 260.369 303.349 285.255 338.009 285.255C365.837 285.255 386.101 264.763 391.23 230.6C384.392 253.045 370.722 264.755 350.954 264.755L350.961 264.763ZM338.757 158.376C351.206 158.376 360.235 173.024 360.235 189.609C360.235 195.713 358.029 199.611 351.938 199.611H308.975C311.662 174.725 323.377 158.376 338.765 158.376H338.757Z" fill="#FF280B"/>
<path d="M678.929 186.782C680.457 187.672 656.955 247.327 654.772 253.352C646.366 276.529 637.935 299.698 629.363 322.82C612.581 368.072 597.871 415.828 572.438 457.024C566.497 466.647 557.657 477.634 545.91 479.988C536.92 481.792 528.529 477.468 521.926 471.688C505.341 457.166 495.414 434.76 487.338 414.725C484.1 406.685 480.98 398.494 478.585 390.154C476.024 381.169 476.331 373.112 476.331 373.112C508.351 486.785 558.083 439.194 571.532 423.436C571.563 423.404 571.603 423.349 571.634 423.317C572.706 422.002 573.769 420.656 574.841 419.277C574.912 419.207 574.943 419.159 574.975 419.104C575.968 417.805 576.968 416.497 577.977 415.151C578.694 414.127 580.128 412.119 582.239 409.11C584.359 406.126 586.013 403.826 587.171 402.219H570.523L481.941 186.79H504.955L590.465 394.769L666.331 186.79H678.921L678.929 186.782Z" fill="#FF280B"/>
<path d="M129.517 20.4783C129.517 31.2832 118.802 40.1272 105.723 40.1272H86.7507V69.2108L98.4508 73.1406H72.3008L82.0312 69.2108V5.64116L72.3008 1.41211H105.723C118.802 1.41211 129.517 9.96472 129.517 20.4783ZM124.309 20.4783C124.309 10.2561 116.344 3.18406 104.943 3.18406H86.7585V38.3631H104.943C116.344 38.3631 124.309 30.9918 124.309 20.4783Z" fill="white"/>
<path d="M170.22 27.4561C170.22 29.1257 169.14 30.4015 167.368 30.4015C163.924 30.4015 163.137 26.8655 159.504 26.8655C155.376 26.8655 151.539 31.3859 148.986 34.3313V69.9041L158.716 73.1488H136.498L144.755 69.9041V29.8108H136.498L148.986 23.1326V32.3703C152.327 28.535 157.834 23.1326 164.129 23.1326C167.769 23.1326 170.228 24.8021 170.228 27.4561H170.22Z" fill="white"/>
<path d="M174.451 48.2864C174.451 34.4337 185.457 23.1326 198.048 23.1326C210.638 23.1326 221.543 34.4337 221.543 48.2864C221.543 62.1391 210.536 74.3222 198.048 74.3222C185.56 74.3222 174.451 62.6273 174.451 48.2864ZM216.524 48.2864C216.524 34.5282 208.858 24.6053 198.04 24.6053C187.222 24.6053 179.462 34.1344 179.462 48.2864C179.462 62.4383 187.128 72.755 198.04 72.755C208.952 72.755 216.524 62.9266 216.524 48.2864Z" fill="white"/>
<path d="M226.073 29.819L238.561 23.1407V78.268C238.561 89.9629 232.172 97.2318 220.274 99.0982C229.414 96.5466 234.33 89.766 234.33 76.0078V29.8269H226.073V29.819ZM239.838 0.239258V9.17775H231.975V0.239258H239.838Z" fill="white"/>
<path d="M291.058 56.7366C288.308 68.1322 281.721 74.3222 272.574 74.3222C259.4 74.3222 250.261 64.5962 250.261 49.1684C250.261 33.7406 259.7 23.1326 272.282 23.1326C282.895 23.1326 290.073 30.5984 290.073 41.805V42.3956H255.272C254.98 44.1676 254.783 46.1285 254.783 48.0974C254.783 61.6587 262.055 70.9909 273.464 70.9909C281.721 70.9909 288.016 66.0767 291.065 56.7445L291.058 56.7366ZM255.469 40.9151H281.918C283.88 40.9151 284.967 39.9306 284.967 37.8673C284.967 31.4804 279.562 24.5029 272.282 24.5029C264.025 24.5029 257.635 31.0867 255.469 40.9151Z" fill="white"/>
<path d="M330.783 25.4634C333.139 26.7943 334.534 27.9599 335.834 29.9681C334.951 28.2827 333.178 26.6841 330.783 25.4634Z" fill="white"/>
<path d="M377.962 64.8008C374.031 70.9908 369.209 74.3299 363.607 74.3299C356.823 74.3299 352.009 70.3056 352.206 62.8319L353.089 28.1411H342.862L352.198 21.4628V14.7767L356.618 11.8313V24.9988H374.409V28.1411H356.618V62.1389C356.618 68.132 360.455 71.1798 365.269 71.1798C370.383 71.1798 374.708 68.9196 377.954 64.7929L377.962 64.8008Z" fill="white"/>
<path d="M338.938 56.7366C336.18 68.1401 329.602 74.3301 320.454 74.3301C307.281 74.3301 298.141 64.5962 298.141 49.1684C298.141 33.7406 307.58 23.1326 320.557 23.1326C324.48 23.1326 327.978 24.0382 330.712 25.4164C330.736 25.4322 330.76 25.44 330.791 25.4558C333.147 26.7867 334.542 27.9523 335.842 29.9605C336.102 30.3779 336.369 30.8268 336.637 31.3229C337.433 32.8035 338.032 34.4337 338.071 36.119C338.134 38.6312 336.858 41.1434 334.786 42.5846C332.722 44.0179 329.917 44.3408 327.577 43.4194C326.71 43.0808 325.875 42.5531 325.347 41.7735C324.394 40.3559 324.654 38.4343 325.252 36.8278C325.859 35.2212 326.765 33.7091 327.049 32.0159C327.38 29.9762 326.608 27.8971 325.26 26.3693C323.968 24.9045 322.148 24.432 320.249 24.5029C319.485 24.5344 318.721 24.5895 317.964 24.7076C316.546 24.936 315.167 25.3692 313.867 25.9834C312.567 26.5977 311.37 27.3931 310.29 28.3224C309.211 29.2517 308.171 30.4094 307.304 31.6222C306.382 32.9216 305.618 34.3234 304.996 35.7803C304.318 37.3633 303.806 39.0092 303.436 40.6867C303.034 42.5059 302.798 44.3645 302.703 46.2309C302.671 46.8531 302.656 47.4673 302.656 48.0895C302.656 61.6508 309.928 70.9831 321.329 70.9831C329.594 70.9831 335.881 66.0689 338.93 56.7287L338.938 56.7366Z" fill="white"/>
<path d="M435.211 359.11H408.588L402.301 73.015L421.147 64.2498L435.211 359.11Z" fill="#FF280B"/>
<path d="M474.345 359.11H447.722L441.435 73.015L460.281 64.2498L474.345 359.11Z" fill="#FF280B"/>
</svg>
