<svg width="24" height="25" viewBox="0 0 24 25" fill="none" xmlns="http://www.w3.org/2000/svg">
<g clip-path="url(#clip0_328_9822)">
<path d="M15.3813 21.3114V14.5455H17.6473L17.9863 11.9153H15.3813V10.2369C15.3813 9.4754 15.593 8.95576 16.6847 8.95576H18.0776V6.60332C17.4033 6.53178 16.7256 6.49709 16.0476 6.49939C14.0399 6.49939 12.6656 7.72515 12.6656 9.97658V11.9153H10.3947V14.5455H12.6656V21.3114H4.30673C4.04913 21.3114 3.80208 21.2091 3.61993 21.0269C3.43778 20.8448 3.33545 20.5977 3.33545 20.3401V4.79965C3.33545 4.54205 3.43778 4.295 3.61993 4.11285C3.80208 3.9307 4.04913 3.82837 4.30673 3.82837H19.8472C20.1048 3.82837 20.3519 3.9307 20.534 4.11285C20.7162 4.295 20.8185 4.54205 20.8185 4.79965V20.3401C20.8185 20.5977 20.7162 20.8448 20.534 21.0269C20.3519 21.2091 20.1048 21.3114 19.8472 21.3114H15.3813Z" fill="white"/>
</g>
<defs>
<clipPath id="clip0_328_9822">
<rect width="23.3107" height="23.3107" fill="white" transform="translate(0.421387 0.914551)"/>
</clipPath>
</defs>
</svg>
