<svg width="24" height="25" viewBox="0 0 24 25" fill="none" xmlns="http://www.w3.org/2000/svg">
<g clip-path="url(#clip0_328_9824)">
<path d="M12.0361 9.65615C11.2633 9.65615 10.5221 9.96314 9.97566 10.5096C9.4292 11.056 9.12221 11.7972 9.12221 12.57C9.12221 13.3428 9.4292 14.0839 9.97566 14.6304C10.5221 15.1768 11.2633 15.4838 12.0361 15.4838C12.8089 15.4838 13.55 15.1768 14.0965 14.6304C14.6429 14.0839 14.9499 13.3428 14.9499 12.57C14.9499 11.7972 14.6429 11.056 14.0965 10.5096C13.55 9.96314 12.8089 9.65615 12.0361 9.65615ZM12.0361 7.71358C13.3241 7.71358 14.5593 8.22524 15.4701 9.13599C16.3808 10.0467 16.8925 11.282 16.8925 12.57C16.8925 13.858 16.3808 15.0932 15.4701 16.004C14.5593 16.9147 13.3241 17.4264 12.0361 17.4264C10.7481 17.4264 9.51281 16.9147 8.60206 16.004C7.6913 15.0932 7.17965 13.858 7.17965 12.57C7.17965 11.282 7.6913 10.0467 8.60206 9.13599C9.51281 8.22524 10.7481 7.71358 12.0361 7.71358ZM18.3494 7.47076C18.3494 7.79276 18.2215 8.10157 17.9938 8.32926C17.7661 8.55695 17.4573 8.68486 17.1353 8.68486C16.8133 8.68486 16.5045 8.55695 16.2768 8.32926C16.0491 8.10157 15.9212 7.79276 15.9212 7.47076C15.9212 7.14876 16.0491 6.83995 16.2768 6.61226C16.5045 6.38458 16.8133 6.25666 17.1353 6.25666C17.4573 6.25666 17.7661 6.38458 17.9938 6.61226C18.2215 6.83995 18.3494 7.14876 18.3494 7.47076ZM12.0361 4.79974C9.6331 4.79974 9.24071 4.80654 8.12276 4.85607C7.36128 4.89201 6.85038 4.994 6.3764 5.17854C5.95486 5.34172 5.65085 5.53694 5.32741 5.86135C5.02341 6.15507 4.78967 6.51365 4.64363 6.91033C4.45909 7.38626 4.35711 7.89618 4.32214 8.6567C4.27163 9.72899 4.2658 10.1039 4.2658 12.57C4.2658 14.9729 4.2726 15.3653 4.32214 16.4833C4.35808 17.2438 4.46006 17.7557 4.64363 18.2287C4.80875 18.6512 5.00301 18.9552 5.32547 19.2777C5.65279 19.604 5.95681 19.7992 6.37446 19.9605C6.85427 20.146 7.36516 20.2489 8.12276 20.2839C9.19506 20.3344 9.56997 20.3402 12.0361 20.3402C14.439 20.3402 14.8314 20.3334 15.9493 20.2839C16.7089 20.248 17.2208 20.146 17.6947 19.9624C18.1153 19.7983 18.4213 19.603 18.7437 19.2806C19.071 18.9533 19.2663 18.6492 19.4275 18.2316C19.612 17.7527 19.715 17.2409 19.75 16.4833C19.8005 15.411 19.8063 15.0361 19.8063 12.57C19.8063 10.167 19.7995 9.77464 19.75 8.6567C19.714 7.89716 19.612 7.38432 19.4275 6.91033C19.2811 6.51405 19.0478 6.15561 18.7447 5.86135C18.4511 5.55719 18.0925 5.32342 17.6957 5.17757C17.2198 4.99303 16.7089 4.89104 15.9493 4.85607C14.8771 4.80557 14.5021 4.79974 12.0361 4.79974ZM12.0361 2.85718C14.675 2.85718 15.0043 2.86689 16.0397 2.91545C17.0741 2.96402 17.7783 3.12622 18.3979 3.3671C19.039 3.61381 19.579 3.94793 20.1191 4.48699C20.6129 4.97253 20.9951 5.55985 21.2389 6.2081C21.4789 6.8268 21.642 7.53195 21.6906 8.56637C21.7362 9.60175 21.7489 9.93102 21.7489 12.57C21.7489 15.209 21.7392 15.5382 21.6906 16.5736C21.642 17.608 21.4789 18.3122 21.2389 18.9319C20.9958 19.5805 20.6136 20.168 20.1191 20.653C19.6334 21.1467 19.0461 21.5288 18.3979 21.7729C17.7792 22.0128 17.0741 22.176 16.0397 22.2245C15.0043 22.2702 14.675 22.2828 12.0361 22.2828C9.39708 22.2828 9.06782 22.2731 8.03243 22.2245C6.99802 22.176 6.29384 22.0128 5.67416 21.7729C5.02566 21.5295 4.43823 21.1473 3.95305 20.653C3.45906 20.1675 3.07689 19.5802 2.83316 18.9319C2.59229 18.3132 2.43008 17.608 2.38152 16.5736C2.33587 15.5382 2.32324 15.209 2.32324 12.57C2.32324 9.93102 2.33295 9.60175 2.38152 8.56637C2.43008 7.53098 2.59229 6.82778 2.83316 6.2081C3.07621 5.55946 3.45848 4.97197 3.95305 4.48699C4.43837 3.99283 5.02576 3.61063 5.67416 3.3671C6.29384 3.12622 6.99705 2.96402 8.03243 2.91545C9.06782 2.8698 9.39708 2.85718 12.0361 2.85718Z" fill="white"/>
</g>
<defs>
<clipPath id="clip0_328_9824">
<rect width="23.3107" height="23.3107" fill="white" transform="translate(0.380859 0.914551)"/>
</clipPath>
</defs>
</svg>
